<svg width="14" height="14" viewBox="0 0 14 14" fill="none" xmlns="http://www.w3.org/2000/svg">
<path d="M2.98438 0C1.33203 0 0 1.33203 0 2.98438V11.0156C0 12.668 1.33203 14 2.98438 14H11.0156C12.668 14 14 12.668 14 11.0156V2.98438C14 1.33203 12.668 0 11.0156 0H2.98438ZM3.5 2C4.32812 2 5 2.67188 5 3.5C5 4.32812 4.32812 5 3.5 5C2.67188 5 2 4.32812 2 3.5C2 2.67188 2.67188 2 3.5 2ZM6.89844 5.42969C7.73047 5.42969 8.39844 6.10156 8.39844 6.92969C8.39844 7.75781 7.73047 8.42969 6.89844 8.42969C6.07031 8.42969 5.39844 7.75781 5.39844 6.92969C5.39844 6.10156 6.07031 5.42969 6.89844 5.42969ZM10.5 9C11.3281 9 12 9.67188 12 10.5C12 11.3281 11.3281 12 10.5 12C9.67188 12 9 11.3281 9 10.5C9 9.67188 9.67188 9 10.5 9Z" fill="#E5E5E5"/>
</svg>
